<mxfile host="65bd71144e">
    <diagram id="D-WkR2lr7__JnRv7UiJI" name="Page-1">
        <mxGraphModel dx="1511" dy="1096" grid="1" gridSize="10" guides="1" tooltips="1" connect="1" arrows="1" fold="1" page="1" pageScale="1" pageWidth="1169" pageHeight="827" math="0" shadow="0">
            <root>
                <mxCell id="0"/>
                <mxCell id="1" parent="0"/>
                <mxCell id="113" value="model" style="shape=folder;fontStyle=1;spacingTop=10;tabWidth=70;tabHeight=30;tabPosition=left;html=1;strokeWidth=3;verticalAlign=middle;movableLabel=1;comic=0;backgroundOutline=0;container=1;moveCells=0;treeMoving=1;" vertex="1" parent="1">
                    <mxGeometry x="90" y="-780" width="890" height="647.5" as="geometry">
                        <mxPoint x="-411" y="-315" as="offset"/>
                    </mxGeometry>
                </mxCell>
                <mxCell id="164" value="&lt;p style=&quot;margin: 0px ; margin-top: 4px ; text-align: center&quot;&gt;&lt;b&gt;&amp;lt;&amp;lt;Entity&amp;gt;&amp;gt;&lt;/b&gt;&lt;/p&gt;&lt;p style=&quot;margin: 0px ; margin-top: 4px ; text-align: center&quot;&gt;&lt;b&gt;Cliente&lt;/b&gt;&lt;/p&gt;&lt;hr size=&quot;1&quot;&gt;&lt;p style=&quot;margin: 0px ; margin-left: 4px&quot;&gt;&lt;br&gt;&lt;/p&gt;&lt;hr size=&quot;1&quot;&gt;&lt;p style=&quot;margin: 0px ; margin-left: 4px&quot;&gt;&lt;br&gt;&lt;/p&gt;" style="verticalAlign=top;align=left;overflow=fill;fontSize=12;fontFamily=Helvetica;html=1;rounded=1;arcSize=6;" vertex="1" parent="113">
                    <mxGeometry x="349.9999999999998" y="215.0000000000001" width="160" height="95" as="geometry"/>
                </mxCell>
                <mxCell id="165" style="edgeStyle=orthogonalEdgeStyle;rounded=1;orthogonalLoop=1;jettySize=auto;html=1;exitX=0;exitY=0.5;exitDx=0;exitDy=0;entryX=0.733;entryY=0.5;entryDx=0;entryDy=0;entryPerimeter=0;endArrow=block;endFill=0;startSize=20;endSize=20;strokeWidth=2;" edge="1" source="166" target="188" parent="113">
                    <mxGeometry relative="1" as="geometry"/>
                </mxCell>
                <mxCell id="166" value="&lt;p style=&quot;margin: 0px ; margin-top: 4px ; text-align: center&quot;&gt;&lt;b&gt;&amp;lt;&amp;lt;Entity&amp;gt;&amp;gt;&lt;/b&gt;&lt;/p&gt;&lt;p style=&quot;margin: 0px ; margin-top: 4px ; text-align: center&quot;&gt;&lt;b&gt;Endereco&lt;/b&gt;&lt;/p&gt;&lt;hr size=&quot;1&quot;&gt;&lt;p style=&quot;margin: 0px ; margin-left: 4px&quot;&gt;- rua: String&lt;/p&gt;&lt;p style=&quot;margin: 0px ; margin-left: 4px&quot;&gt;- numero: Int&lt;/p&gt;&lt;p style=&quot;margin: 0px ; margin-left: 4px&quot;&gt;- cidade: String&lt;/p&gt;&lt;p style=&quot;margin: 0px ; margin-left: 4px&quot;&gt;- estado: String&lt;/p&gt;&lt;hr size=&quot;1&quot;&gt;&lt;p style=&quot;margin: 0px ; margin-left: 4px&quot;&gt;&lt;br&gt;&lt;/p&gt;" style="verticalAlign=top;align=left;overflow=fill;fontSize=12;fontFamily=Helvetica;html=1;rounded=1;arcSize=6;" vertex="1" parent="113">
                    <mxGeometry x="349.9999999999998" y="375.0000000000001" width="160" height="140" as="geometry"/>
                </mxCell>
                <mxCell id="167" style="edgeStyle=orthogonalEdgeStyle;rounded=1;jumpStyle=none;orthogonalLoop=1;jettySize=auto;html=1;endArrow=openThin;endFill=0;startSize=20;endSize=20;strokeWidth=2;" edge="1" source="164" target="166" parent="113">
                    <mxGeometry x="-960.0000000000002" y="-705" as="geometry"/>
                </mxCell>
                <mxCell id="168" value="1" style="text;html=1;strokeColor=none;fillColor=none;align=center;verticalAlign=middle;whiteSpace=wrap;rounded=0;" vertex="1" parent="113">
                    <mxGeometry x="429.9999999999998" y="355.0000000000001" width="40" height="20" as="geometry"/>
                </mxCell>
                <mxCell id="169" value="0..*" style="text;html=1;strokeColor=none;fillColor=none;align=center;verticalAlign=middle;whiteSpace=wrap;rounded=0;" vertex="1" parent="113">
                    <mxGeometry x="429.9999999999998" y="310.0000000000001" width="40" height="20" as="geometry"/>
                </mxCell>
                <mxCell id="170" style="edgeStyle=orthogonalEdgeStyle;rounded=1;orthogonalLoop=1;jettySize=auto;html=1;endArrow=block;endFill=0;startSize=20;endSize=20;strokeWidth=2;" edge="1" source="171" target="188" parent="113">
                    <mxGeometry relative="1" as="geometry"/>
                </mxCell>
                <mxCell id="171" value="&lt;p style=&quot;margin: 0px ; margin-top: 4px ; text-align: center&quot;&gt;&lt;b&gt;&amp;lt;&amp;lt;MappedSuperclass&amp;gt;&amp;gt;&lt;/b&gt;&lt;/p&gt;&lt;p style=&quot;margin: 0px ; margin-top: 4px ; text-align: center&quot;&gt;&lt;b&gt;Pessoa&lt;/b&gt;&lt;/p&gt;&lt;hr size=&quot;1&quot;&gt;&lt;p style=&quot;margin: 0px ; margin-left: 4px&quot;&gt;- nome: String&lt;/p&gt;&lt;p style=&quot;margin: 0px ; margin-left: 4px&quot;&gt;- sobrenome: String&lt;/p&gt;&lt;hr size=&quot;1&quot;&gt;&lt;p style=&quot;margin: 0px ; margin-left: 4px&quot;&gt;+ getters()&lt;/p&gt;&lt;p style=&quot;margin: 0px ; margin-left: 4px&quot;&gt;+ setters()&lt;br&gt;&lt;/p&gt;" style="verticalAlign=top;align=left;overflow=fill;fontSize=12;fontFamily=Helvetica;html=1;rounded=1;arcSize=6;" vertex="1" parent="113">
                    <mxGeometry x="109.99999999999977" y="135.0000000000001" width="160" height="130" as="geometry"/>
                </mxCell>
                <mxCell id="172" style="edgeStyle=orthogonalEdgeStyle;rounded=1;jumpStyle=none;orthogonalLoop=1;jettySize=auto;html=1;endArrow=block;endFill=0;startSize=20;endSize=20;strokeWidth=2;" edge="1" source="164" target="171" parent="113">
                    <mxGeometry x="-960.0000000000002" y="-705" as="geometry"/>
                </mxCell>
                <mxCell id="173" style="edgeStyle=orthogonalEdgeStyle;rounded=1;orthogonalLoop=1;jettySize=auto;html=1;exitX=0.5;exitY=1;exitDx=0;exitDy=0;entryX=0.25;entryY=1;entryDx=0;entryDy=0;endArrow=block;endFill=0;startSize=20;endSize=20;strokeWidth=2;" edge="1" source="174" target="188" parent="113">
                    <mxGeometry relative="1" as="geometry">
                        <Array as="points">
                            <mxPoint x="749.9999999999998" y="605.0000000000001"/>
                            <mxPoint x="146.99999999999977" y="605.0000000000001"/>
                        </Array>
                    </mxGeometry>
                </mxCell>
                <mxCell id="174" value="&lt;p style=&quot;margin: 0px ; margin-top: 4px ; text-align: center&quot;&gt;&lt;b&gt;&amp;lt;&amp;lt;Entity&amp;gt;&amp;gt;&lt;/b&gt;&lt;/p&gt;&lt;p style=&quot;margin: 0px ; margin-top: 4px ; text-align: center&quot;&gt;&lt;b&gt;Produto&lt;/b&gt;&lt;/p&gt;&lt;hr size=&quot;1&quot;&gt;&lt;p style=&quot;margin: 0px ; margin-left: 4px&quot;&gt;- nome: String&lt;/p&gt;&lt;p style=&quot;margin: 0px ; margin-left: 4px&quot;&gt;- descricao: String&lt;/p&gt;&lt;p style=&quot;margin: 0px ; margin-left: 4px&quot;&gt;- codigo: Int&lt;/p&gt;&lt;p style=&quot;margin: 0px ; margin-left: 4px&quot;&gt;- valor: Float&lt;/p&gt;&lt;hr size=&quot;1&quot;&gt;&lt;p style=&quot;margin: 0px ; margin-left: 4px&quot;&gt;+ getters()&lt;/p&gt;&lt;p style=&quot;margin: 0px ; margin-left: 4px&quot;&gt;+ setters()&lt;br&gt;&lt;/p&gt;" style="verticalAlign=top;align=left;overflow=fill;fontSize=12;fontFamily=Helvetica;html=1;rounded=1;arcSize=6;" vertex="1" parent="113">
                    <mxGeometry x="669.9999999999998" y="335.0000000000001" width="160" height="160" as="geometry"/>
                </mxCell>
                <mxCell id="175" style="edgeStyle=orthogonalEdgeStyle;rounded=1;jumpStyle=none;orthogonalLoop=1;jettySize=auto;html=1;endArrow=openThin;endFill=0;startSize=20;endSize=20;strokeWidth=2;" edge="1" source="179" target="164" parent="113">
                    <mxGeometry x="-960.0000000000002" y="-705" as="geometry"/>
                </mxCell>
                <mxCell id="176" style="edgeStyle=orthogonalEdgeStyle;rounded=1;jumpStyle=none;orthogonalLoop=1;jettySize=auto;html=1;endArrow=openThin;endFill=0;startSize=20;endSize=20;strokeWidth=2;" edge="1" source="179" target="174" parent="113">
                    <mxGeometry x="-960.0000000000002" y="-705" as="geometry"/>
                </mxCell>
                <mxCell id="177" style="edgeStyle=orthogonalEdgeStyle;rounded=1;orthogonalLoop=1;jettySize=auto;html=1;entryX=1;entryY=0.5;entryDx=0;entryDy=0;endArrow=openThin;endFill=0;startSize=20;endSize=20;strokeWidth=2;" edge="1" source="179" target="187" parent="113">
                    <mxGeometry relative="1" as="geometry"/>
                </mxCell>
                <mxCell id="178" style="edgeStyle=orthogonalEdgeStyle;rounded=1;orthogonalLoop=1;jettySize=auto;html=1;exitX=0;exitY=0.75;exitDx=0;exitDy=0;entryX=0.75;entryY=1;entryDx=0;entryDy=0;endArrow=block;endFill=0;startSize=20;endSize=20;strokeWidth=2;" edge="1" source="179" target="188" parent="113">
                    <mxGeometry relative="1" as="geometry">
                        <Array as="points">
                            <mxPoint x="619.9999999999998" y="238.0000000000001"/>
                            <mxPoint x="619.9999999999998" y="565.0000000000001"/>
                            <mxPoint x="232.99999999999977" y="565.0000000000001"/>
                        </Array>
                    </mxGeometry>
                </mxCell>
                <mxCell id="179" value="&lt;p style=&quot;margin: 0px ; margin-top: 4px ; text-align: center&quot;&gt;&lt;b&gt;&amp;lt;&amp;lt;Entity&amp;gt;&amp;gt;&lt;/b&gt;&lt;/p&gt;&lt;p style=&quot;margin: 0px ; margin-top: 4px ; text-align: center&quot;&gt;&lt;b&gt;Pedido&lt;/b&gt;&lt;/p&gt;&lt;hr size=&quot;1&quot;&gt;&lt;p style=&quot;margin: 0px ; margin-left: 4px&quot;&gt;- dataPedido: Date&lt;/p&gt;&lt;p style=&quot;margin: 0px ; margin-left: 4px&quot;&gt;- quantidade: Int&lt;/p&gt;&lt;p style=&quot;margin: 0px ; margin-left: 4px&quot;&gt;- valorTotal: Float&lt;/p&gt;&lt;hr size=&quot;1&quot;&gt;&lt;p style=&quot;margin: 0px ; margin-left: 4px&quot;&gt;+ getters()&lt;/p&gt;&lt;p style=&quot;margin: 0px ; margin-left: 4px&quot;&gt;+ setters()&lt;br&gt;&lt;/p&gt;" style="verticalAlign=top;align=left;overflow=fill;fontSize=12;fontFamily=Helvetica;html=1;rounded=1;arcSize=6;" vertex="1" parent="113">
                    <mxGeometry x="669.9999999999998" y="125.00000000000011" width="160" height="150" as="geometry"/>
                </mxCell>
                <mxCell id="180" value="1" style="text;html=1;strokeColor=none;fillColor=none;align=center;verticalAlign=middle;whiteSpace=wrap;rounded=0;" vertex="1" parent="113">
                    <mxGeometry x="509.9999999999998" y="275.0000000000001" width="40" height="20" as="geometry"/>
                </mxCell>
                <mxCell id="181" value="1" style="text;html=1;strokeColor=none;fillColor=none;align=center;verticalAlign=middle;whiteSpace=wrap;rounded=0;fontStyle=0" vertex="1" parent="113">
                    <mxGeometry x="699.9999999999998" y="315.0000000000001" width="40" height="20" as="geometry"/>
                </mxCell>
                <mxCell id="182" value="1" style="text;html=1;strokeColor=none;fillColor=none;align=center;verticalAlign=middle;whiteSpace=wrap;rounded=0;" vertex="1" parent="113">
                    <mxGeometry x="699.9999999999998" y="275.0000000000001" width="40" height="20" as="geometry"/>
                </mxCell>
                <mxCell id="183" value="1" style="text;html=1;strokeColor=none;fillColor=none;align=center;verticalAlign=middle;whiteSpace=wrap;rounded=0;" vertex="1" parent="113">
                    <mxGeometry x="579.9999999999998" y="180.0000000000001" width="40" height="20" as="geometry"/>
                </mxCell>
                <mxCell id="184" value="1" style="text;html=1;strokeColor=none;fillColor=none;align=center;verticalAlign=middle;whiteSpace=wrap;rounded=0;" vertex="1" parent="113">
                    <mxGeometry x="509.9999999999998" y="135.0000000000001" width="40" height="20" as="geometry"/>
                </mxCell>
                <mxCell id="185" style="edgeStyle=orthogonalEdgeStyle;rounded=1;orthogonalLoop=1;jettySize=auto;html=1;entryX=1;entryY=0.5;entryDx=0;entryDy=0;strokeWidth=2;endArrow=block;endFill=0;endSize=20;startSize=20;" edge="1" source="187" target="171" parent="113">
                    <mxGeometry relative="1" as="geometry"/>
                </mxCell>
                <mxCell id="186" style="edgeStyle=orthogonalEdgeStyle;rounded=1;orthogonalLoop=1;jettySize=auto;html=1;exitX=0;exitY=0.25;exitDx=0;exitDy=0;entryX=0;entryY=0.25;entryDx=0;entryDy=0;endArrow=block;endFill=0;startSize=20;endSize=20;strokeWidth=2;" edge="1" source="187" target="188" parent="113">
                    <mxGeometry relative="1" as="geometry">
                        <Array as="points">
                            <mxPoint x="50" y="96"/>
                            <mxPoint x="50" y="415"/>
                        </Array>
                    </mxGeometry>
                </mxCell>
                <mxCell id="187" value="&lt;p style=&quot;margin: 0px ; margin-top: 4px ; text-align: center&quot;&gt;&lt;b&gt;&amp;lt;&amp;lt;Entity&amp;gt;&amp;gt;&lt;/b&gt;&lt;/p&gt;&lt;p style=&quot;margin: 0px ; margin-top: 4px ; text-align: center&quot;&gt;&lt;b&gt;Funcionario&lt;/b&gt;&lt;/p&gt;&lt;hr size=&quot;1&quot;&gt;&lt;p style=&quot;margin: 0px ; margin-left: 4px&quot;&gt;- salario: Float&lt;/p&gt;&lt;hr size=&quot;1&quot;&gt;&lt;p style=&quot;margin: 0px ; margin-left: 4px&quot;&gt;+ getSalario(): Float&lt;/p&gt;&lt;p style=&quot;margin: 0px ; margin-left: 4px&quot;&gt;+ setSalario(): void&lt;/p&gt;" style="verticalAlign=top;align=left;overflow=fill;fontSize=12;fontFamily=Helvetica;html=1;rounded=1;arcSize=6;" vertex="1" parent="113">
                    <mxGeometry x="349.9999999999998" y="67.50000000000011" width="160" height="115" as="geometry"/>
                </mxCell>
                <mxCell id="188" value="&lt;p style=&quot;margin: 0px ; margin-top: 4px ; text-align: center&quot;&gt;&lt;b&gt;&amp;lt;&amp;lt;MappedSuperclass&amp;gt;&amp;gt;&lt;/b&gt;&lt;/p&gt;&lt;p style=&quot;margin: 0px ; margin-top: 4px ; text-align: center&quot;&gt;&lt;b&gt;AbstractEntity&lt;/b&gt;&lt;/p&gt;&lt;hr size=&quot;1&quot;&gt;&lt;p style=&quot;margin: 0px ; margin-left: 4px&quot;&gt;- id: Long&lt;br&gt;&lt;/p&gt;&lt;hr size=&quot;1&quot;&gt;&lt;p style=&quot;margin: 0px ; margin-left: 4px&quot;&gt;+ getID(): Long&lt;/p&gt;&lt;p style=&quot;margin: 0px ; margin-left: 4px&quot;&gt;+ setID(Long id): void&lt;br&gt;&lt;/p&gt;" style="verticalAlign=middle;align=left;overflow=fill;fontSize=12;fontFamily=Helvetica;html=1;rounded=1;arcSize=6;perimeterSpacing=1;strokeWidth=3;autosize=1;spacing=10;" vertex="1" parent="113">
                    <mxGeometry x="104.99999999999977" y="385.0000000000001" width="170" height="120" as="geometry"/>
                </mxCell>
                <mxCell id="190" value="java.io" style="shape=folder;fontStyle=1;spacingTop=10;tabWidth=70;tabHeight=30;tabPosition=left;html=1;comic=0;strokeWidth=3;verticalAlign=middle;movableLabel=1;container=1;dropTarget=1;treeMoving=1;moveCells=1;" vertex="1" parent="1">
                    <mxGeometry x="140" y="-100" width="370" height="230" as="geometry">
                        <mxPoint x="-149" y="-106" as="offset"/>
                    </mxGeometry>
                </mxCell>
                <mxCell id="196" value="&lt;p style=&quot;margin: 0px ; margin-top: 4px ; text-align: center&quot;&gt;&lt;b&gt;&amp;lt;&amp;lt;Intergace&amp;gt;&amp;gt;&lt;/b&gt;&lt;/p&gt;&lt;p style=&quot;margin: 0px ; margin-top: 4px ; text-align: center&quot;&gt;&lt;b&gt;Serializable&lt;/b&gt;&lt;/p&gt;&lt;hr size=&quot;1&quot;&gt;&lt;p style=&quot;margin: 0px ; margin-left: 4px&quot;&gt;&lt;br&gt;&lt;/p&gt;&lt;hr size=&quot;1&quot;&gt;&lt;p style=&quot;margin: 0px ; margin-left: 4px&quot;&gt;&lt;br&gt;&lt;/p&gt;" style="verticalAlign=middle;align=left;overflow=fill;fontSize=12;fontFamily=Helvetica;html=1;rounded=1;arcSize=6;perimeterSpacing=1;strokeWidth=3;autosize=1;spacing=10;" vertex="1" parent="190">
                    <mxGeometry x="103" y="81.36" width="175" height="98.64" as="geometry"/>
                </mxCell>
                <mxCell id="191" value="repository" style="shape=folder;fontStyle=1;spacingTop=10;tabWidth=100;tabHeight=40;tabPosition=left;html=1;comic=0;strokeWidth=3;verticalAlign=middle;movableLabel=1;container=1;dropTarget=1;treeFolding=1;treeMoving=1;" vertex="1" parent="1">
                    <mxGeometry x="-280" y="-520" width="290" height="390" as="geometry">
                        <mxPoint x="-94" y="-183" as="offset"/>
                    </mxGeometry>
                </mxCell>
                <mxCell id="199" value="&lt;p style=&quot;margin: 0px ; margin-top: 4px ; text-align: center&quot;&gt;&lt;b&gt;&amp;lt;&amp;lt;Intergace&amp;gt;&amp;gt;&lt;/b&gt;&lt;/p&gt;&lt;p style=&quot;margin: 0px ; margin-top: 4px ; text-align: center&quot;&gt;&lt;b&gt;ClienteRepository&lt;/b&gt;&lt;/p&gt;&lt;hr size=&quot;1&quot;&gt;&lt;p style=&quot;margin: 0px ; margin-left: 4px&quot;&gt;&lt;br&gt;&lt;/p&gt;&lt;hr size=&quot;1&quot;&gt;&lt;p style=&quot;margin: 0px ; margin-left: 4px&quot;&gt;&lt;br&gt;&lt;/p&gt;" style="verticalAlign=middle;align=left;overflow=fill;fontSize=12;fontFamily=Helvetica;html=1;rounded=1;arcSize=6;perimeterSpacing=1;strokeWidth=3;autosize=1;spacing=10;" vertex="1" parent="191">
                    <mxGeometry x="65.63" y="70.00000000000011" width="140" height="110" as="geometry"/>
                </mxCell>
                <mxCell id="192" value="controller" style="shape=folder;fontStyle=1;spacingTop=10;tabWidth=90;tabHeight=30;tabPosition=left;html=1;comic=0;strokeWidth=3;verticalAlign=middle;movableLabel=1;dropTarget=1;container=1;treeFolding=1;treeMoving=1;resizeWidth=1;resizeHeight=1;" vertex="1" parent="1">
                    <mxGeometry x="-280" y="-100" width="383" height="230" as="geometry">
                        <mxPoint x="-141" y="-106" as="offset"/>
                    </mxGeometry>
                </mxCell>
                <mxCell id="200" value="&lt;p style=&quot;margin: 0px ; margin-top: 4px ; text-align: center&quot;&gt;&lt;b&gt;ClienteController&lt;/b&gt;&lt;/p&gt;&lt;hr size=&quot;1&quot;&gt;&lt;p style=&quot;margin: 0px ; margin-left: 4px&quot;&gt;- repository: ClienteRepository &amp;lt;&amp;lt;Autowired&amp;gt;&amp;gt;&lt;/p&gt;&lt;hr size=&quot;1&quot;&gt;&lt;p style=&quot;margin: 0px ; margin-left: 4px&quot;&gt;+ buscaClientePorID(Long id): Cliente&lt;/p&gt;" style="verticalAlign=middle;align=left;overflow=fill;fontSize=12;fontFamily=Helvetica;html=1;rounded=1;arcSize=6;perimeterSpacing=1;strokeWidth=3;autosize=1;spacing=10;" vertex="1" parent="192">
                    <mxGeometry x="50" y="80" width="271.25" height="100" as="geometry"/>
                </mxCell>
                <mxCell id="193" value="org.springframework.data.jpa.repository" style="shape=folder;fontStyle=1;spacingTop=10;tabWidth=270;tabHeight=30;tabPosition=left;html=1;comic=0;strokeWidth=3;verticalAlign=middle;movableLabel=1;dropTarget=1;collapsible=1;container=1;treeMoving=1;treeFolding=1;" vertex="1" parent="1">
                    <mxGeometry x="-280" y="-780" width="290" height="210" as="geometry">
                        <mxPoint x="-10" y="-98" as="offset"/>
                    </mxGeometry>
                </mxCell>
                <mxCell id="198" value="&lt;p style=&quot;margin: 0px ; margin-top: 4px ; text-align: center&quot;&gt;&lt;b&gt;&amp;lt;&amp;lt;Intergace&amp;gt;&amp;gt;&lt;/b&gt;&lt;/p&gt;&lt;p style=&quot;margin: 0px ; margin-top: 4px ; text-align: center&quot;&gt;&lt;b&gt;JpaRepository&lt;/b&gt;&lt;/p&gt;&lt;hr size=&quot;1&quot;&gt;&lt;p style=&quot;margin: 0px ; margin-left: 4px&quot;&gt;&lt;br&gt;&lt;/p&gt;&lt;hr size=&quot;1&quot;&gt;&lt;p style=&quot;margin: 0px ; margin-left: 4px&quot;&gt;&lt;br&gt;&lt;/p&gt;" style="verticalAlign=middle;align=left;overflow=fill;fontSize=12;fontFamily=Helvetica;html=1;rounded=1;arcSize=6;perimeterSpacing=1;strokeWidth=3;autosize=1;spacing=10;" vertex="1" parent="193">
                    <mxGeometry x="45" y="62" width="180" height="110" as="geometry"/>
                </mxCell>
                <mxCell id="197" style="edgeStyle=orthogonalEdgeStyle;rounded=1;orthogonalLoop=1;jettySize=auto;html=1;endArrow=block;endFill=0;startSize=20;endSize=20;strokeWidth=2;dashed=1;" edge="1" parent="1" source="188" target="196">
                    <mxGeometry relative="1" as="geometry">
                        <Array as="points">
                            <mxPoint x="280" y="-100"/>
                            <mxPoint x="331" y="-100"/>
                        </Array>
                    </mxGeometry>
                </mxCell>
                <mxCell id="202" style="edgeStyle=orthogonalEdgeStyle;rounded=1;orthogonalLoop=1;jettySize=auto;html=1;exitX=0.5;exitY=0;exitDx=0;exitDy=0;endArrow=openThin;endFill=0;startSize=20;endSize=20;strokeWidth=2;" edge="1" parent="1" source="200" target="199">
                    <mxGeometry relative="1" as="geometry">
                        <Array as="points">
                            <mxPoint x="-94" y="-100"/>
                            <mxPoint x="-144" y="-100"/>
                        </Array>
                    </mxGeometry>
                </mxCell>
                <mxCell id="203" style="edgeStyle=orthogonalEdgeStyle;rounded=1;orthogonalLoop=1;jettySize=auto;html=1;exitX=0.5;exitY=0;exitDx=0;exitDy=0;endArrow=block;endFill=0;startSize=20;endSize=20;strokeWidth=2;" edge="1" parent="1" source="199" target="198">
                    <mxGeometry relative="1" as="geometry"/>
                </mxCell>
                <mxCell id="204" style="edgeStyle=orthogonalEdgeStyle;rounded=1;orthogonalLoop=1;jettySize=auto;html=1;exitX=0.75;exitY=0;exitDx=0;exitDy=0;entryX=0;entryY=0.75;entryDx=0;entryDy=0;endArrow=block;endFill=0;startSize=20;endSize=20;strokeWidth=2;" edge="1" parent="1" source="200" target="188">
                    <mxGeometry relative="1" as="geometry"/>
                </mxCell>
                <mxCell id="205" style="edgeStyle=orthogonalEdgeStyle;rounded=1;orthogonalLoop=1;jettySize=auto;html=1;exitX=0;exitY=0.75;exitDx=0;exitDy=0;entryX=1;entryY=0.5;entryDx=0;entryDy=0;endArrow=none;endFill=0;startSize=20;endSize=20;strokeColor=#f0f0f0;strokeWidth=2;" edge="1" parent="1" source="164" target="199">
                    <mxGeometry relative="1" as="geometry">
                        <Array as="points">
                            <mxPoint x="50" y="-494"/>
                            <mxPoint x="50" y="-395"/>
                        </Array>
                    </mxGeometry>
                </mxCell>
            </root>
        </mxGraphModel>
    </diagram>
</mxfile>